<?xml version="1.0" encoding="utf-8"?>
<!-- Generator: Adobe Illustrator 17.0.0, SVG Export Plug-In . SVG Version: 6.00 Build 0)  -->
<!DOCTYPE svg PUBLIC "-//W3C//DTD SVG 1.1//EN" "http://www.w3.org/Graphics/SVG/1.1/DTD/svg11.dtd">
<svg version="1.1" id="Layer_1" xmlns="http://www.w3.org/2000/svg" xmlns:xlink="http://www.w3.org/1999/xlink" x="0px" y="0px"
	 width="570px" height="511.675px" viewBox="0 0 570 511.675" enable-background="new 0 0 570 511.675" xml:space="preserve">
<path fill="#3F3D56" d="M564.999,195.675c-0.204,0-0.403-0.062-0.571-0.179L287.87,2.892c-1.724-1.195-4.009-1.191-5.729,0.01
	L7.574,195.494c-0.453,0.317-1.076,0.207-1.393-0.246c-0.316-0.452-0.207-1.074,0.244-1.392L280.993,1.264
	c2.408-1.681,5.607-1.686,8.02-0.013l276.559,192.603c0.453,0.316,0.565,0.939,0.249,1.392
	C565.633,195.515,565.327,195.675,564.999,195.675L564.999,195.675z"/>
<polygon fill="#E6E6E6" points="23.264,202.502 285.276,8.319 549.276,216.319 298.776,364.819 162.776,333.819 "/>
<path fill="#FFFFFF" d="M288.96,310.659c-0.984,0.001-1.958-0.19-2.869-0.562L124.5,243.049V33.175c0.005-3.864,3.136-6.995,7-7h310
	c3.864,0.005,6.995,3.136,7,7v210.02l-0.304,0.13l-156.28,66.74C290.98,310.458,289.975,310.66,288.96,310.659z"/>
<path fill="#3F3D56" d="M288.96,311.159c-1.049,0.001-2.088-0.202-3.06-0.599L124,243.383V33.175c0.005-4.14,3.36-7.495,7.5-7.5h310
	c4.14,0.005,7.495,3.36,7.5,7.5v210.351l-156.888,66.999C291.115,310.944,290.043,311.16,288.96,311.159z M126,242.047
	l160.663,66.665c1.499,0.608,3.177,0.598,4.668-0.028L447,242.205V33.175c-0.004-3.036-2.464-5.496-5.5-5.5h-310
	c-3.036,0.004-5.496,2.464-5.5,5.5L126,242.047z"/>
<path fill="#3F3D56" d="M563,193.675h-0.2L448,242.695l-157.07,67.07c-1.24,0.521-2.635,0.529-3.88,0.02L125,242.555l-117.62-48.8
	l-0.18-0.08H7c-3.864,0.004-6.996,3.136-7,7v304c0.004,3.864,3.136,6.996,7,7h556c3.864-0.004,6.996-3.136,7-7v-304
	C569.996,196.811,566.864,193.679,563,193.675z M568,504.675c-0.001,2.761-2.239,4.999-5,5H7c-2.761-0.001-4.999-2.239-5-5v-304
	c0.004-2.687,2.126-4.892,4.81-5L125,244.715l161.28,66.92c1.746,0.71,3.702,0.7,5.44-0.03L448,244.865l115.2-49.19
	c2.679,0.116,4.794,2.318,4.8,5V504.675z"/>
<path fill="#00BFA6" d="M287.345,251.147c-5.965,0.011-11.773-1.918-16.546-5.496l-0.296-0.222l-62.311-47.708
	c-12.136-9.299-14.436-26.675-5.138-38.812s26.675-14.436,38.812-5.138l40.36,30.948l95.378-124.387
	c9.302-12.133,26.679-14.427,38.812-5.125c0,0,0.001,0.001,0.001,0.001l-0.593,0.805l0.608-0.793
	c12.117,9.313,14.409,26.676,5.124,38.813L309.369,240.343C304.11,247.177,295.968,251.171,287.345,251.147z"/>
<path fill="#6C63FF" d="M174.256,456.541H44.815c-3.34,0.005-6.051-2.699-6.056-6.038c-0.005-3.34,2.699-6.051,6.038-6.056
	c0.006,0,0.012,0,0.018,0h129.44c3.34-0.005,6.051,2.699,6.056,6.038c0.005,3.34-2.699,6.051-6.038,6.056
	C174.267,456.541,174.261,456.541,174.256,456.541z"/>
<path fill="#6C63FF" d="M91.256,430.541h-46.44c-3.34,0.005-6.051-2.699-6.056-6.038c-0.005-3.34,2.699-6.051,6.038-6.056
	c0.006,0,0.012,0,0.018,0h46.44c3.34-0.005,6.051,2.699,6.056,6.038c0.005,3.34-2.699,6.051-6.038,6.056
	C91.267,430.541,91.261,430.541,91.256,430.541z"/>
</svg>
